<svg width="128" height="32" viewBox="0 0 128 32" fill="none" xmlns="http://www.w3.org/2000/svg">
<g clip-path="url(#clip0_2_9002)">
<path d="M0.657593 31.9999H11.5069C16.6515 31.9999 20.822 27.8294 20.822 22.6848H9.97266C4.82809 22.6848 0.657593 26.8553 0.657593 31.9999Z" fill="#4194D1"/>
<path d="M1.14282 9.31507V23.0137C6.28739 23.0137 10.4579 18.8432 10.4579 13.6986V0C5.31332 0 1.14282 4.1705 1.14282 9.31507Z" fill="#4194D1"/>
<path d="M31.3425 0H20.4932C15.3486 0 11.1781 4.1705 11.1781 9.31507H22.0274C27.172 9.31507 31.3425 5.14457 31.3425 0Z" fill="#4194D1"/>
<path d="M31.3424 22.1371V8.43848C26.1978 8.43848 22.0273 12.609 22.0273 17.7535V31.4522C27.1719 31.4522 31.3424 27.2817 31.3424 22.1371Z" fill="#4194D1"/>
</g>
<path d="M112.759 25.2485C111.919 25.2485 111.17 25.1027 110.512 24.8111C109.855 24.5138 109.334 24.0764 108.951 23.4989C108.574 22.9157 108.385 22.1896 108.385 21.3206C108.385 20.5887 108.52 19.9741 108.788 19.4766C109.057 18.9792 109.423 18.579 109.886 18.276C110.349 17.9729 110.875 17.7442 111.464 17.5898C112.059 17.4355 112.682 17.3268 113.334 17.2639C114.1 17.1839 114.717 17.1096 115.186 17.041C115.655 16.9666 115.995 16.858 116.207 16.7151C116.418 16.5721 116.524 16.3606 116.524 16.0804V16.029C116.524 15.4858 116.353 15.0655 116.01 14.7682C115.672 14.4709 115.192 14.3223 114.569 14.3223C113.911 14.3223 113.388 14.4681 112.999 14.7597C112.611 15.0455 112.353 15.4057 112.227 15.8403L108.848 15.5658C109.02 14.7654 109.357 14.0736 109.86 13.4904C110.364 12.9015 111.012 12.4498 111.807 12.1353C112.608 11.8151 113.534 11.655 114.586 11.655C115.318 11.655 116.018 11.7408 116.687 11.9123C117.362 12.0838 117.959 12.3497 118.48 12.7099C119.006 13.0701 119.42 13.5332 119.723 14.0993C120.026 14.6596 120.178 15.3314 120.178 16.1147V24.9998H116.713V23.173H116.61C116.398 23.5847 116.115 23.9478 115.761 24.2622C115.406 24.571 114.98 24.814 114.483 24.9912C113.986 25.1627 113.411 25.2485 112.759 25.2485ZM113.805 22.7271C114.343 22.7271 114.818 22.6213 115.229 22.4097C115.641 22.1925 115.964 21.9009 116.198 21.535C116.433 21.169 116.55 20.7545 116.55 20.2914V18.8935C116.436 18.9678 116.278 19.0364 116.078 19.0993C115.884 19.1565 115.664 19.2108 115.418 19.2622C115.172 19.308 114.926 19.3509 114.68 19.3909C114.434 19.4252 114.211 19.4566 114.011 19.4852C113.583 19.5481 113.208 19.6482 112.888 19.7854C112.568 19.9226 112.319 20.1084 112.142 20.3429C111.964 20.5716 111.876 20.8574 111.876 21.2005C111.876 21.6979 112.056 22.0781 112.416 22.3411C112.782 22.5984 113.245 22.7271 113.805 22.7271Z" fill="black"/>
<path d="M100.78 25.2571C99.4309 25.2571 98.2702 24.9712 97.2982 24.3995C96.332 23.822 95.5887 23.0215 95.0684 21.9981C94.5538 20.9746 94.2965 19.7968 94.2965 18.4646C94.2965 17.1153 94.5567 15.9318 95.077 14.914C95.603 13.8906 96.3491 13.093 97.3154 12.5212C98.2816 11.9438 99.4309 11.655 100.763 11.655C101.912 11.655 102.919 11.8637 103.782 12.2811C104.645 12.6985 105.329 13.2845 105.832 14.0392C106.335 14.794 106.612 15.6802 106.664 16.6979H103.216C103.119 16.0404 102.861 15.5115 102.444 15.1113C102.032 14.7053 101.492 14.5024 100.823 14.5024C100.257 14.5024 99.7625 14.6567 99.3394 14.9655C98.922 15.2685 98.5961 15.7116 98.3617 16.2948C98.1273 16.878 98.0101 17.5841 98.0101 18.4132C98.0101 19.2537 98.1244 19.9684 98.3531 20.5573C98.5875 21.1462 98.9163 21.595 99.3394 21.9037C99.7625 22.2125 100.257 22.3669 100.823 22.3669C101.24 22.3669 101.615 22.2811 101.947 22.1096C102.284 21.938 102.561 21.6893 102.778 21.3634C103.001 21.0318 103.147 20.6344 103.216 20.1713H106.664C106.606 21.1776 106.332 22.0638 105.84 22.83C105.354 23.5904 104.682 24.185 103.825 24.6139C102.967 25.0427 101.952 25.2571 100.78 25.2571Z" fill="black"/>
<path d="M88.2481 24.9999V11.8266H91.9016V24.9999H88.2481ZM90.0834 10.1285C89.5402 10.1285 89.0742 9.94842 88.6855 9.58822C88.3024 9.22229 88.1108 8.7849 88.1108 8.27604C88.1108 7.77289 88.3024 7.34122 88.6855 6.98101C89.0742 6.61509 89.5402 6.43213 90.0834 6.43213C90.6266 6.43213 91.0897 6.61509 91.4728 6.98101C91.8616 7.34122 92.056 7.77289 92.056 8.27604C92.056 8.7849 91.8616 9.22229 91.4728 9.58822C91.0897 9.94842 90.6266 10.1285 90.0834 10.1285Z" fill="black"/>
<path d="M76.878 17.384V24.9998H73.2245V11.8266H76.7065V14.1507H76.8609C77.1524 13.3846 77.6413 12.7785 78.3274 12.3326C79.0135 11.8809 79.8454 11.655 80.8231 11.655C81.7379 11.655 82.5355 11.8551 83.2159 12.2554C83.8963 12.6556 84.4252 13.2274 84.8025 13.9706C85.1799 14.7082 85.3686 15.5887 85.3686 16.6121V24.9998H81.7151V17.2639C81.7208 16.4578 81.5149 15.8288 81.0976 15.3772C80.6802 14.9198 80.1056 14.691 79.3737 14.691C78.882 14.691 78.4475 14.7968 78.0701 15.0084C77.6985 15.2199 77.4069 15.5287 77.1953 15.9346C76.9895 16.3348 76.8837 16.818 76.878 17.384Z" fill="black"/>
<path d="M66.6443 24.9999V11.8267H70.2978V24.9999H66.6443ZM67.1674 10.1285L68.9856 6.22632H72.3647L69.7489 10.1285H67.1674Z" fill="black"/>
<path d="M63.7176 7.43555V24.9999H60.0641V7.43555H63.7176Z" fill="black"/>
<path d="M57.4697 13.5849H53.7133C53.6447 13.0989 53.5046 12.6673 53.2931 12.2899C53.0815 11.9068 52.8099 11.5809 52.4783 11.3122C52.1467 11.0435 51.7636 10.8376 51.3291 10.6947C50.9003 10.5518 50.4343 10.4803 49.9312 10.4803C49.0221 10.4803 48.2302 10.7061 47.5555 11.1578C46.8808 11.6038 46.3577 12.2556 45.986 13.1132C45.6144 13.9651 45.4286 15 45.4286 16.2179C45.4286 17.47 45.6144 18.522 45.986 19.3739C46.3634 20.2259 46.8894 20.8691 47.5641 21.3036C48.2388 21.7382 49.0192 21.9554 49.9054 21.9554C50.4029 21.9554 50.8631 21.8897 51.2862 21.7582C51.715 21.6267 52.0953 21.4351 52.4269 21.1835C52.7585 20.9263 53.0329 20.6147 53.2502 20.2487C53.4732 19.8828 53.6276 19.4654 53.7133 18.9966L57.4697 19.0137C57.3726 19.8199 57.1296 20.5975 56.7408 21.3465C56.3577 22.0898 55.8402 22.7559 55.1884 23.3448C54.5424 23.928 53.7705 24.3911 52.8728 24.7342C51.9809 25.0715 50.9718 25.2402 49.8454 25.2402C48.2788 25.2402 46.878 24.8857 45.643 24.1767C44.4137 23.4677 43.4417 22.4414 42.727 21.0978C42.0181 19.7542 41.6636 18.1275 41.6636 16.2179C41.6636 14.3025 42.0238 12.673 42.7442 11.3293C43.4646 9.98572 44.4423 8.96228 45.6773 8.25902C46.9123 7.55004 48.3017 7.19556 49.8454 7.19556C50.8631 7.19556 51.8065 7.3385 52.6756 7.62437C53.5504 7.91025 54.3251 8.32763 54.9998 8.87652C55.6744 9.41968 56.2233 10.0858 56.6464 10.8748C57.0752 11.6638 57.3497 12.5672 57.4697 13.5849Z" fill="black"/>
<defs>
<clipPath id="clip0_2_9002">
<rect width="32" height="32" fill="white"/>
</clipPath>
</defs>
</svg>
